<svg viewBox="0 0 559 124" fill="none" xmlns="http://www.w3.org/2000/svg">
    <path d="M54.1708 52.0195C59.9976 52.0195 64.2766 46.4546 61.1265 41.5487C55.2087 32.3226 44.9208 26.2268 33.2308 26.2268C14.8765 26.2268 0 41.2375 0 59.7445C0 78.2516 14.8765 93.2806 33.2308 93.2806C44.9208 93.2806 55.2087 87.1848 61.1265 77.9587C64.2766 73.0528 59.9976 67.4878 54.1708 67.4878H53.9705C51.1846 67.4878 48.7264 69.1903 46.942 71.3503C43.6644 75.3044 38.7298 77.8122 33.2308 77.8122C23.3435 77.8122 15.3317 69.7211 15.3317 59.7628C15.3317 49.8046 23.3435 41.7134 33.2308 41.7134C38.7298 41.7134 43.6644 44.2213 46.942 48.1753C48.7264 50.3354 51.1846 52.0378 53.9705 52.0378H54.1708V52.0195Z" fill="black"/>
    <path fill-rule="evenodd" clip-rule="evenodd" d="M269.539 95.0917C287.966 95.0917 302.897 80.081 302.897 61.5557C302.897 43.0303 287.966 28.0197 269.539 28.0197C251.111 28.0197 236.18 43.0303 236.18 61.5557C236.18 80.081 251.111 95.0917 269.539 95.0917ZM269.539 79.6234C279.462 79.6234 287.492 71.5323 287.492 61.574C287.492 51.6157 279.444 43.5246 269.539 43.5246C259.615 43.5246 251.585 51.6157 251.585 61.574C251.585 71.5323 259.615 79.6234 269.539 79.6234Z" fill="black"/>
    <path fill-rule="evenodd" clip-rule="evenodd" d="M109.068 95.0906C127.495 95.0906 142.426 80.0799 142.426 61.5545C142.426 43.0292 127.495 28.0368 109.068 28.0368C90.6404 28.0368 75.7093 43.0475 75.7093 61.5729C75.7093 80.0982 90.6586 95.0906 109.068 95.0906ZM109.068 79.6223C118.991 79.6223 127.021 71.5311 127.021 61.5729C127.021 51.6146 118.973 43.5235 109.068 43.5235C99.1621 43.5235 91.1138 51.6146 91.1138 61.5729C91.1138 71.5311 99.1621 79.6223 109.068 79.6223Z" fill="black"/>
    <path fill-rule="evenodd" clip-rule="evenodd" d="M189.313 95.0917C195.595 95.0917 201.458 93.3527 206.465 90.3139C206.229 95.6409 204.681 99.8329 201.804 102.872C198.672 106.276 194.429 107.979 189.04 107.979C185.653 107.979 182.575 107.027 179.79 105.105C178.005 103.933 176.548 102.432 175.419 100.62C174.327 98.881 172.233 97.8742 170.321 98.643L160.707 102.506C158.922 103.219 157.994 105.251 158.904 106.954C159.56 108.18 160.361 109.388 161.29 110.615C163.019 112.885 165.204 114.935 167.808 116.766C170.412 118.688 173.453 120.207 176.931 121.342C180.5 122.569 184.524 123.173 189.04 123.173C194.083 123.173 198.636 122.349 202.714 120.683C206.884 119.109 210.435 116.802 213.403 113.745C216.353 110.78 218.665 107.119 220.304 102.743C221.961 98.4599 222.671 93.6272 222.671 88.2088V31.6442C222.671 29.6489 221.05 28.0197 219.066 28.0197H210.052C208.068 28.0197 206.447 29.6489 206.447 31.6442V32.651V32.7792C201.44 29.7587 195.576 28.0197 189.313 28.0197C170.886 28.0197 155.954 43.0303 155.954 61.5557C155.954 80.081 170.886 95.0917 189.313 95.0917ZM189.131 79.6234C199 79.6234 206.993 71.5323 206.993 61.574C206.993 51.6157 199 43.5246 189.131 43.5246C179.262 43.5246 171.268 51.6157 171.268 61.574C171.268 71.5323 179.262 79.6234 189.131 79.6234Z" fill="black"/>
    <path d="M345.798 26.596C352.462 26.596 357.936 28.976 362.22 33.736V8.984L354.247 7.55599C353.057 7.318 352.462 6.604 352.462 5.414V0.177996H372.692V79.194C376.659 79.908 378.959 80.384 379.594 80.622C380.705 80.86 381.26 81.574 381.26 82.764V88H366.504C365.076 88 364.124 87.2463 363.648 85.739L362.696 78.48C357.063 85.3027 350.32 88.714 342.466 88.714C335.405 88.714 329.852 86.096 325.806 80.86C321.681 75.386 319.618 67.77 319.618 58.012C319.618 48.8887 321.958 41.4313 326.639 35.64C331.478 29.6107 337.865 26.596 345.798 26.596ZM346.036 80.265C352.303 80.265 357.698 77.2107 362.22 71.102V42.066C358.65 37.306 354.009 34.926 348.297 34.926C342.506 34.926 338.103 36.9093 335.088 40.876C332.073 44.8427 330.566 50.5547 330.566 58.012C330.566 69.3567 333.501 76.338 339.372 78.956C341.197 79.7493 343.378 80.146 345.917 80.146L346.036 80.265Z" fill="black"/>
    <path d="M417.966 26.834C422.329 26.834 426.296 27.548 429.866 28.976C433.357 30.404 436.411 32.4667 439.029 35.164C441.488 37.7027 443.392 40.9553 444.741 44.922C446.09 48.8093 446.764 53.0933 446.764 57.774C446.764 62.4547 446.09 66.7387 444.741 70.626C443.392 74.5927 441.488 77.8453 439.029 80.384C436.411 83.0813 433.357 85.144 429.866 86.572C426.296 88 422.329 88.714 417.966 88.714C413.603 88.714 409.636 88 406.066 86.572C402.575 85.144 399.521 83.0813 396.903 80.384C394.523 77.9247 392.579 74.672 391.072 70.626C389.803 67.2147 389.168 62.9307 389.168 57.774C389.168 52.6173 389.803 48.3333 391.072 44.922C392.579 40.876 394.523 37.6233 396.903 35.164C399.521 32.4667 402.575 30.404 406.066 28.976C409.636 27.548 413.603 26.834 417.966 26.834ZM417.966 80.622C424.075 80.622 428.517 78.6387 431.294 74.672C434.229 70.5467 435.697 64.9537 435.697 57.893C435.697 50.8323 434.229 45.2393 431.294 41.114C428.517 37.1473 424.075 35.164 417.966 35.164C414.872 35.164 412.254 35.64 410.112 36.592C408.049 37.544 406.225 39.0513 404.638 41.114C403.131 43.1767 402.02 45.5567 401.306 48.254C400.513 51.4273 400.116 54.68 400.116 58.012C400.116 61.1853 400.513 64.3587 401.306 67.532C402.02 70.2293 403.131 72.6093 404.638 74.672C405.987 76.4967 407.811 77.9247 410.112 78.956C412.651 80.0667 415.269 80.622 417.966 80.622Z" fill="black"/>
    <path d="M507.392 79.551C502.394 85.739 494.936 88.833 485.02 88.833C477.404 88.833 471.136 86.096 466.218 80.622C461.061 74.8307 458.483 67.2147 458.483 57.774C458.483 48.5713 460.902 41.1537 465.742 35.521C470.819 29.7297 477.88 26.834 486.924 26.834C491.446 26.834 497.396 28.262 504.774 31.118V46.826H500.014C498.903 46.826 498.229 46.2707 497.991 45.16C497.911 44.922 497.753 43.4147 497.515 40.638L497.158 36.711C496.285 36.3937 495.412 36.1557 494.54 35.997C493.746 35.8383 493.191 35.7193 492.874 35.64C490.732 35.3227 488.51 35.164 486.21 35.164C484.147 35.164 481.965 35.6797 479.665 36.711C477.523 37.663 475.658 39.1307 474.072 41.114C471.057 45.0807 469.55 50.634 469.55 57.774C469.55 64.914 471.136 70.5467 474.31 74.672C477.404 78.6387 481.648 80.622 487.043 80.622C492.041 80.622 496.444 78.956 500.252 75.624C500.886 74.9893 501.68 74.672 502.632 74.672C503.504 74.672 504.139 74.9893 504.536 75.624L507.392 79.551Z" fill="black"/>
    <path d="M539.775 26.834C543.9 26.834 549.136 27.905 555.483 30.047V45.517H550.842C549.731 45.517 549.057 44.9617 548.819 43.851L548.105 35.997C544.376 35.1243 541.282 34.688 538.823 34.688H538.704C535.451 34.688 532.714 35.5607 530.493 37.306C528.351 38.972 527.28 40.7967 527.28 42.78C527.28 44.8427 527.756 46.35 528.708 47.302C530.294 49.1267 532.595 50.515 535.61 51.467L539.18 52.538C539.814 52.6967 541.084 53.0933 542.988 53.728L548.7 55.87C550.286 56.4253 551.952 57.4567 553.698 58.964C556.95 61.5027 558.577 64.9933 558.577 69.436C558.577 75.2273 556.633 79.8287 552.746 83.24C548.541 86.9687 543.226 88.833 536.8 88.833C530.215 88.833 523.71 87.762 517.284 85.62V69.912H521.568C522.52 69.912 523.115 70.388 523.353 71.34L524.067 78.956C527.24 80.5427 531.326 81.336 536.324 81.336C540.132 81.336 543.226 80.3443 545.606 78.361C547.668 76.5363 548.7 74.5133 548.7 72.292C548.7 69.9913 548.224 68.3253 547.272 67.294C546.161 66.0247 544.971 65.0727 543.702 64.438C541.956 63.5653 540.29 62.9307 538.704 62.534C532.833 60.63 529.144 59.3607 527.637 58.726C525.733 57.8533 523.948 56.7427 522.282 55.394C518.95 52.6173 517.284 48.8887 517.284 44.208C517.284 39.448 519.188 35.402 522.996 32.07C526.962 28.5793 532.555 26.834 539.775 26.834Z" fill="black"/>
</svg>
